<svg width="100%" height="100%" id="svg" viewBox="0 0 1440 500" xmlns="http://www.w3.org/2000/svg"
    class="transition duration-300 ease-in-out delay-150">
    <defs>
        <linearGradient id="gradient" x1="48%" y1="0%" x2="52%" y2="100%">
            <stop offset="5%" stop-color="#ffffff88"></stop>
            <stop offset="95%" stop-color="#abb8c388"></stop>
        </linearGradient>
    </defs>
    <path
        d="M 0,500 C 0,500 0,166 0,166 C 62.43062200956936,158.61244019138758 124.86124401913872,151.22488038277513 235,166 C 345.1387559808613,180.77511961722487 502.98564593301444,217.7129186602871 599,208 C 695.0143540669856,198.2870813397129 729.1961722488038,141.92344497607655 814,123 C 898.8038277511962,104.07655502392346 1034.2296650717703,122.59330143540672 1147,136 C 1259.7703349282297,149.40669856459328 1349.8851674641148,157.70334928229664 1440,166 C 1440,166 1440,500 1440,500 Z"
        stroke="none" stroke-width="0" fill="url(#gradient)"
        class="transition-all duration-300 ease-in-out delay-150 path-0"></path>
    <defs>
        <linearGradient id="gradient" x1="48%" y1="0%" x2="52%" y2="100%">
            <stop offset="5%" stop-color="#ffffffff"></stop>
            <stop offset="95%" stop-color="#abb8c3ff"></stop>
        </linearGradient>
    </defs>
    <path
        d="M 0,500 C 0,500 0,333 0,333 C 106.56459330143542,362.3492822966507 213.12918660287085,391.69856459330146 297,391 C 380.87081339712915,390.30143540669854 442.0478468899521,359.555023923445 540,340 C 637.9521531100479,320.444976076555 772.6794258373207,312.08133971291863 887,317 C 1001.3205741626793,321.91866028708137 1095.2344497607655,340.1196172248804 1184,345 C 1272.7655502392345,349.8803827751196 1356.3827751196172,341.4401913875598 1440,333 C 1440,333 1440,500 1440,500 Z"
        stroke="none" stroke-width="0" fill="url(#gradient)"
        class="transition-all duration-300 ease-in-out delay-150 path-1"></path>
</svg>